<svg version="1.1" xmlns="http://www.w3.org/2000/svg" xmlns:xlink="http://www.w3.org/1999/xlink" width="32.14636" height="32.6583" viewBox="0,0,32.14636,32.6583"><defs><linearGradient x1="254.22972" y1="165.77028" x2="225.77028" y2="194.22972" gradientUnits="userSpaceOnUse" id="color-1"><stop offset="0" stop-color="#43d194"/><stop offset="1" stop-color="#4364d1"/></linearGradient></defs><g transform="translate(-223.92682,-163.67085)"><g data-paper-data="{&quot;isPaintingLayer&quot;:true}" fill-rule="nonzero" stroke-linecap="butt" stroke-linejoin="miter" stroke-miterlimit="10" stroke-dasharray="" stroke-dashoffset="0" style="mix-blend-mode: normal"><path d="M227.64,195.07915c-1.36038,0 -2.46318,-1.1028 -2.46318,-2.46318v-25.23194c0,-1.36038 1.1028,-2.46318 2.46318,-2.46318h24.72c1.36038,0 2.46318,1.1028 2.46318,2.46318v25.23194c0,1.36038 -1.1028,2.46318 -2.46318,2.46318z" fill="url(#color-1)" stroke="#00ff9b" stroke-width="2.5"/><g stroke="none" stroke-width="0"><path d="M233.95677,187.87722c-1.01288,0 -1.834,-0.8211 -1.834,-1.834v-12.08647c0,-1.01288 0.8211,-1.834 1.834,-1.834h12.08647c1.01288,0 1.83399,0.8211 1.83399,1.834v12.08647c0,1.01288 -0.8211,1.834 -1.83399,1.834z" fill="#ffffff"/><path d="M237.96207,183.22261c-0.65428,0 -1.18468,-0.53039 -1.18468,-1.18468v-4.07586c0,-0.65428 0.5304,-1.18467 1.18468,-1.18467h4.07586c0.65428,0 1.18468,0.53039 1.18468,1.18467v4.07586c0,0.65428 -0.5304,1.18468 -1.18468,1.18468z" fill="#000000"/></g></g></g></svg>
