<svg version="1.1" xmlns="http://www.w3.org/2000/svg" xmlns:xlink="http://www.w3.org/1999/xlink" width="63.96378" height="64.98197" viewBox="0,0,63.96378,64.98197"><defs><linearGradient x1="268.30156" y1="151.69845" x2="211.69845" y2="208.30156" gradientUnits="userSpaceOnUse" id="color-1"><stop offset="0" stop-color="#43d194"/><stop offset="1" stop-color="#4364d1"/></linearGradient></defs><g transform="translate(-208.01811,-147.50902)"><g data-paper-data="{&quot;isPaintingLayer&quot;:true}" fill-rule="nonzero" stroke-linecap="butt" stroke-linejoin="miter" stroke-miterlimit="10" stroke-dasharray="" stroke-dashoffset="0" style="mix-blend-mode: normal"><path d="M215.41714,209.99099c-2.70567,0 -4.89903,-2.19336 -4.89903,-4.89903v-50.18391c0,-2.70567 2.19336,-4.89903 4.89903,-4.89903h49.16572c2.70567,0 4.89903,2.19336 4.89903,4.89903v50.18391c0,2.70567 -2.19337,4.89903 -4.89903,4.89903z" fill="url(#color-1)" stroke="#00ff9b" stroke-width="5"/><g stroke="none" stroke-width="0"><path d="M227.9806,195.66704c-2.01452,0 -3.64765,-1.63309 -3.64765,-3.64765v-24.03883c0,-2.01452 1.63309,-3.64765 3.64765,-3.64765h24.03883c2.01452,0 3.64763,1.63309 3.64763,3.64765v24.03883c0,2.01452 -1.63309,3.64765 -3.64763,3.64765z" fill="#ffffff"/><path d="M235.94675,186.40947c-1.3013,0 -2.35622,-1.0549 -2.35622,-2.35622v-8.1065c0,-1.3013 1.05492,-2.3562 2.35622,-2.3562h8.1065c1.3013,0 2.35622,1.0549 2.35622,2.3562v8.1065c0,1.3013 -1.05492,2.35622 -2.35622,2.35622z" fill="#000000"/></g><path d="M236.09253,194.48887c0.11026,0.087 0.23746,0.25305 0.13194,0.51991c-0.16885,0.42702 -0.59587,0.25817 -0.59587,0.25817l-0.44586,-0.4599c-0.05175,-0.90238 0.23126,-1.74358 0.52986,-2.58263c-0.17719,0.02404 -0.34807,0.05481 -0.50697,0.09513c-0.32571,0.08265 -0.52513,1.37395 -0.84038,1.67446c-1.27618,1.21649 -3.15675,3.25815 -4.66775,1.49921c-1.20448,0.48602 -2.69186,0.53999 -3.5431,-0.55269c-0.22537,-0.2893 -0.13582,-0.75487 -0.37211,-1.03532c-0.00901,-0.01069 -0.01871,-0.02061 -0.02904,-0.02983c-0.22693,0.09273 -0.45888,0.17366 -0.69287,0.24485l-0.07967,-0.02721l-0.00158,0.03019l-0.59164,-0.03078c-0.09633,-0.00434 -0.18494,-0.03836 -0.25688,-0.09314c-0.45607,0.91625 -0.87154,1.88032 -1.43531,2.65383l-0.18624,0.54095c-0.08198,0.12538 -0.22361,0.20821 -0.38459,0.20821c-0.22719,0 -0.41585,-0.165 -0.45268,-0.3817l-0.09234,-0.48677l0.0196,-0.00372l-0.02676,-0.05334c0.13284,-2.04788 0.95703,-3.70276 1.86325,-5.49364c1.33289,-2.63405 2.74836,-5.05678 4.46923,-7.4746c0.2932,-1.07118 0.85104,-2.51621 0.12494,-3.57145c-0.95619,-1.38964 -2.47857,-0.40841 -3.05598,0.73011c-0.30141,0.5943 -0.26311,1.15342 -0.26248,1.80122c0,0 0,0.45919 -0.45919,0.45919c-0.45919,0 -0.45919,-0.45919 -0.45919,-0.45919c0.00072,-0.8028 -0.01005,-1.47999 0.36328,-2.21953c0.89707,-1.77703 3.2872,-2.79125 4.64094,-0.81633c0.93047,1.35743 0.34361,3.07413 -0.06278,4.47005c-1.69121,2.44743 -3.14284,4.85192 -4.47922,7.49495c-0.37388,0.73945 -0.74965,1.45852 -1.05889,2.1987c0.65908,-1.03191 1.46259,-1.96232 2.2788,-2.86756c0.49385,-0.54771 0.94712,-1.19408 1.71442,-1.40181c1.87418,-0.50738 1.56568,1.50579 0.78205,2.3883c-0.52938,0.59618 -1.02122,1.19533 -1.5494,1.7923c0.19236,0.33264 0.34136,0.69471 0.49575,0.92258c0.32484,0.47944 1.07969,0.4734 1.59191,0.44646c0.35796,-0.01883 0.6602,-0.10886 0.93737,-0.244c-0.00024,-0.82989 0.2288,-1.81917 1.07585,-2.10398c0.54522,-0.18332 1.55634,-0.02839 1.75253,0.68208c0.17683,0.64037 -1.17242,1.44112 -1.57224,1.73131c-0.0641,0.04653 -0.13082,0.09207 -0.19986,0.13641c0.30969,0.26509 0.81115,0.30349 1.19177,0.08642c0.81549,-0.46508 2.09315,-1.67909 2.38178,-2.56685c0.16685,-0.51321 0.16471,-0.86548 0.74793,-1.11408c0.30883,-0.13164 0.76141,-0.19351 1.22034,-0.22777c0.01059,-0.03401 0.02101,-0.06806 0.03124,-0.10214c0.22209,-0.74007 0.28611,-1.45062 0.57817,-2.17714c0,0 0.17225,-0.42566 0.59791,-0.25341c0.42566,0.17225 0.25341,0.5979 0.25341,0.5979c-0.25758,0.63186 -0.32306,1.24545 -0.49126,1.88717c0.09172,-0.00383 0.17828,-0.00786 0.25797,-0.0126l0.1831,-0.00077c0,0 0.45919,0.00001 0.45919,0.45919c0,0.45919 -0.45919,0.45919 -0.45919,0.45919l-0.12979,-0.00077c-0.19409,0.01099 -0.40314,0.01947 -0.61778,0.03011c-0.28297,0.7658 -0.60192,1.5483 -0.61563,2.34609zM230.41553,193.97588c0.06046,-0.04769 0.1216,-0.09608 0.18379,-0.14482c0.18916,-0.14826 0.37226,-0.30712 0.57683,-0.43297c-0.10298,-0.01822 -0.21247,-0.05634 -0.30419,-0.02008c-0.24015,0.09494 -0.37981,0.32899 -0.45642,0.59788zM225.81646,192.82837c0.54367,-0.60271 1.98711,-1.81821 1.9686,-2.56034c-0.00739,-0.29622 -0.61338,0.0716 -0.85506,0.24304c-0.61715,0.4378 -1.42321,1.31477 -1.87269,1.91373c-0.1141,0.15205 -0.22209,0.31167 -0.32541,0.47705l0.00236,-0.00142l0.01129,0.01869c0.04306,-0.02847 0.08817,-0.05397 0.13577,-0.07586c0.38648,-0.1777 0.68921,-0.15251 0.93514,-0.0149z" fill="#111111" stroke="none" stroke-width="0.5"/><path d="M248.42327,193.51233c-0.06421,0.45468 -0.51889,0.39047 -0.51889,0.39047l-0.4588,-0.06528c-1.87353,-0.36455 -4.13714,0.10957 -5.94956,0.63887c-0.6854,0.20016 -1.13367,0.42557 -1.66245,0.59694l-0.59363,0.40193c-0.05752,0.02593 -0.12133,0.04035 -0.18852,0.04035c-0.24059,0 -0.43797,-0.18502 -0.45759,-0.42055c-0.28332,-0.25313 -0.52371,-0.563 -0.6817,-0.90383c-0.20822,-0.44918 -0.28527,-0.82876 -0.19036,-1.34048c0.47247,-2.5474 4.2732,-2.27194 3.16945,0.44423c-0.07155,0.17608 -0.1453,0.32946 -0.2227,0.46982c0.19404,-0.06291 0.38948,-0.11641 0.56899,-0.16966c1.96338,-0.58241 4.34781,-1.03171 6.37801,-0.66014l0.41728,0.05844c0,0 0.45468,0.06421 0.39047,0.51889zM240.09609,192.601c0.01551,-0.1422 0.17671,-0.59121 -0.10666,-0.68262c-1.45052,-0.46792 -1.59806,1.57797 -0.86028,2.41554l0.05131,-0.05073c0.39024,-0.51403 0.84283,-1.01466 0.91563,-1.68219z" fill="#111111" stroke="none" stroke-width="0.5"/><path d="M247.44829,191.44473c0.02532,0.05623 0.04084,0.12512 0.04084,0.20952c0,0.45919 -0.45919,0.45919 -0.45919,0.45919l-0.4549,-0.46018c-0.05671,0.3674 -0.45246,0.3674 -0.45246,0.3674l-0.22514,-0.00069c-0.82713,0.04492 -1.50568,0.22766 -2.24212,0.30738l-0.75699,0.24601c-0.01997,0.00265 -0.04034,0.00402 -0.06103,0.00402c-0.25361,0 -0.45919,-0.20558 -0.45919,-0.45919c0,-0.11494 0.04223,-0.22002 0.11203,-0.30057l0.34249,-0.40012l0.01014,0.00868l0.0171,-0.03782c0.64445,-0.53114 0.95351,-1.09856 1.12045,-1.94513c0.1961,-0.99455 -0.09683,-1.68339 -1.07139,-0.96685c0,0 -0.37894,0.25934 -0.63828,-0.1196c-0.25933,-0.37894 0.1196,-0.63829 0.1196,-0.63829c1.25975,-0.8227 2.27848,-0.55291 2.50808,1.01289c0.13364,0.91137 -0.17818,1.85408 -0.71998,2.5941c0.53432,-0.16641 1.14321,-0.19334 1.66874,-0.22251l0.27549,-0.00069c0,0 0.29214,0 0.41038,0.23302c0.30419,-1.45226 0.68974,-2.85603 0.98555,-4.31865c0,0 0.09107,-0.45007 0.54114,-0.35901c0.45007,0.09107 0.35901,0.54114 0.35901,0.54114c-0.29094,1.43727 -0.66929,2.82037 -0.97037,4.24596z" fill="#111111" stroke="none" stroke-width="0.5"/><path d="M227.83365,204.78341c0.42566,-0.17225 0.59791,0.25342 0.59791,0.25342l0.02231,0.15496c0.9623,1.04888 0.85581,-0.04578 1.11389,-0.91627c0.21269,-0.7174 0.386,-1.39346 0.45431,-2.11079c-0.68218,0.16316 -1.3687,0.30598 -2.07713,0.40613c0,0 -0.45468,0.06421 -0.51889,-0.39047c-0.06421,-0.45468 0.39047,-0.51889 0.39047,-0.51889c0.76203,-0.10748 1.49721,-0.26633 2.22948,-0.44668c-0.04414,-0.67331 -0.35981,-1.60412 -0.1352,-2.22425c0.29468,-0.81361 0.41058,-0.74421 1.04479,-1.0396c0,0 0.42281,-0.17913 0.60194,0.24369c0.17913,0.42281 -0.24369,0.60194 -0.24369,0.60194c-0.84441,0.29538 -0.4413,1.24352 -0.37875,1.94948c0.00697,0.07865 0.01287,0.15752 0.01772,0.23657c0.20176,-0.05305 0.40405,-0.1068 0.60736,-0.16062c0.06709,-0.05455 0.16145,-0.09292 0.29418,-0.09292c0.45919,0 0.45919,0.45919 0.45919,0.45919l-0.34214,0.47495c-0.33854,0.08916 -0.67408,0.17853 -1.00874,0.26548c-0.0475,1.23482 -0.32259,2.48162 -0.73987,3.61741c-0.23495,0.63952 -0.82035,1.3931 -1.64048,1.01551c-0.31943,-0.14706 -0.51606,-0.47784 -0.77409,-0.71675l-0.228,-0.46361c0,0 -0.17225,-0.42566 0.25341,-0.59791z" fill="#111111" stroke="none" stroke-width="0.5"/><path d="M233.53022,203.77283c0.27284,-0.27603 0.54837,-0.08815 0.62713,-0.02338c0.1595,0.04783 0.319,0.09565 0.4785,0.14347c0.59731,0.07273 2.14506,-0.409 1.59105,-1.33827c-0.50876,-0.85337 -2.33273,0.68413 -3.0162,0.00119c-0.22028,-0.2201 -0.08033,-0.61835 -0.09396,-0.92944c-0.01239,-0.2828 -0.0174,-0.5729 -0.01394,-0.86595c-0.03954,-0.12538 -0.02809,-0.22656 0.00672,-0.30657c0.02271,-0.70625 0.09625,-1.42065 0.23559,-2.08295c0,0 0.09565,-0.44912 0.54477,-0.35347c0.44912,0.09565 0.35347,0.54477 0.35347,0.54477c-0.09543,0.442 -0.17149,0.94839 -0.22941,1.46061c0.54251,-0.13148 1.18241,-0.26879 1.59526,-0.51615c-0.00172,-0.0748 0.01839,-0.15971 0.07414,-0.25371c0.23425,-0.39494 0.62919,-0.16069 0.62919,-0.16069l0.26017,0.79856c-0.64977,0.66164 -1.73976,0.80128 -2.64713,1.09462c-0.02381,0.33268 -0.03984,0.65138 -0.04844,0.93848c-0.00205,0.06845 0.09166,-0.1069 0.15327,-0.13679c0.15781,-0.07656 0.32519,-0.13481 0.49523,-0.17781c0.20123,-0.05088 0.40837,-0.07566 0.61415,-0.10274c0.63142,-0.08308 1.45009,-0.09694 1.85366,0.54225c1.08167,1.71321 -1.18656,2.88246 -2.53901,2.74434c-0.22187,-0.06516 -0.44375,-0.13032 -0.66562,-0.19548l-0.25482,-0.17551c0,0 -0.32657,-0.3228 -0.00377,-0.64938z" fill="#111111" stroke="none" stroke-width="0.5"/><path d="M263.71125,199.99199c0.10816,0.44627 -0.33811,0.55444 -0.33811,0.55444l-0.5798,0.14053c-2.07521,0.50297 -4.12445,1.06352 -6.1775,1.65016c-3.36093,1.19739 -6.6602,2.46778 -9.82608,4.13098c-1.81092,0.95137 -3.46782,2.2048 -5.35279,2.93831l-0.7311,0.55464c-0.06903,0.04151 -0.14987,0.06538 -0.23628,0.06538c-0.25361,0 -0.45919,-0.20558 -0.45919,-0.45919c0,-0.15058 0.07248,-0.28423 0.18445,-0.36797l0.39018,-0.29803c0.89085,-0.95025 2.09493,-1.51309 3.10211,-2.33258c0.84758,-0.68964 1.65947,-1.40845 2.57991,-2.01556c0.84339,-0.55629 1.75642,-1.06172 2.53509,-1.70902c-1.50079,0.07804 -2.06751,-1.19153 -2.13777,-2.68529c-0.01367,-0.2906 -0.04581,-0.69818 -0.03418,-1.10672c-0.70524,0.89466 -1.46684,1.75478 -2.19632,2.63775c0.38955,1.12771 -1.32174,2.56336 -2.06241,3.08544l-0.05201,0.00299l0.00786,0.01856l-0.42864,0.18159c-0.05752,0.02593 -0.12133,0.04036 -0.18852,0.04036c-0.25361,0 -0.45919,-0.20558 -0.45919,-0.45919c0,-0.11188 0.04001,-0.21441 0.1065,-0.29407l0.45146,-0.45394c0.32649,-0.62107 0.71082,-1.20303 1.12785,-1.76302c-0.01554,0.00097 -0.03101,0.00133 -0.04639,0.00096c-0.47374,-0.01157 -0.94685,-0.07675 -1.41193,-0.17373c-0.71265,1.41668 -1.69393,2.66711 -2.86536,3.76173c0,0 -0.33565,0.31336 -0.64901,-0.02229c-0.31336,-0.33565 0.02229,-0.64901 0.02229,-0.64901c1.0722,-1.00006 2.23033,-2.30972 2.79016,-3.68457c-0.49085,-0.87993 -0.76619,-2.16549 -0.08648,-2.97251c0.60456,-0.7178 1.25887,-0.56781 1.66284,0.16608c0.3296,0.59879 -0.2163,1.86334 -0.43464,2.41774c-0.01867,0.04743 -0.03764,0.09468 -0.05689,0.14176c0.47926,0.01626 1.27917,-0.03385 1.82729,0.0605c1.021,-1.23563 2.13691,-2.40822 3.04699,-3.7227l0.03203,-0.01863l-0.0085,-0.00809l0.49995,-0.5251c0.08368,-0.08823 0.20203,-0.14325 0.33323,-0.14325c0.25361,0 0.45919,0.20558 0.45919,0.45919c0,0.05014 -0.00804,0.09841 -0.0229,0.14358l-0.18221,0.60037c-0.10578,1.09936 -0.99433,4.65778 1.32414,3.98206c0.26991,-0.07866 0.51074,-0.23516 0.76612,-0.35275l0.06591,-0.06654c0,0 0.36353,-0.28053 0.64406,0.083c0.07844,0.10164 0.10652,0.1968 0.10628,0.28115c0.03149,0.18522 -0.07902,0.34907 -0.07902,0.34907c-0.96814,1.42884 -2.49001,2.23399 -3.90242,3.16392c-0.27819,0.18316 -0.54574,0.37714 -0.80714,0.57762c3.34106,-1.76623 6.79886,-3.16574 10.37111,-4.43556c2.07407,-0.59377 4.14478,-1.15996 6.24153,-1.66816l0.57979,-0.14053c0,0 0.44627,-0.10816 0.55444,0.33811zM241.26791,199.99337c0.04537,-0.14658 0.08551,-0.29534 0.11835,-0.44747c0.03167,-0.14665 0.06113,-0.29386 0.08574,-0.44186c0.01864,-0.11211 0.14764,-0.3867 0.04495,-0.33799c-0.30765,0.14593 -0.3339,0.69786 -0.24904,1.22731z" fill="#111111" stroke="none" stroke-width="0.5"/><path d="M248.635,195.8067c0,-0.25361 0.20558,-0.45919 0.45919,-0.45919c0.25361,0 0.45919,0.20558 0.45919,0.45919c0,0.25361 -0.20558,0.45919 -0.45919,0.45919c-0.25361,0 -0.45919,-0.20558 -0.45919,-0.45919z" fill="#111111" stroke="none" stroke-width="0.5"/></g></g></svg>
