<svg version="1.1" xmlns="http://www.w3.org/2000/svg" xmlns:xlink="http://www.w3.org/1999/xlink" width="44.53883" height="88.79781" viewBox="0,0,44.53883,88.79781"><g id="keto21" transform="translate(-213.51527,-115.74374)"><g data-paper-data="{&quot;isPaintingLayer&quot;:true}" fill-rule="nonzero" stroke-linejoin="miter" stroke-miterlimit="10" stroke-dasharray="" stroke-dashoffset="0" style="mix-blend-mode: normal"><path d="M223.1959,163.69312c0,-0.27461 0.22261,-0.49722 0.49722,-0.49722h32.61376c0.27461,0 0.49722,0.22261 0.49722,0.49722v32.61376c0,0.27461 -0.22261,0.49722 -0.49722,0.49722h-32.61376c-0.27461,0 -0.49722,-0.22261 -0.49722,-0.49722z" fill="#0033ff" stroke="#000000" stroke-width="2.5" stroke-linecap="butt"/><path d="M228.66789,180c0,-6.25855 5.07356,-11.33211 11.33211,-11.33211c6.25855,0 11.33211,5.07356 11.33211,11.33211c0,6.25855 -5.07356,11.33211 -11.33211,11.33211c-6.25855,0 -11.33211,-5.07356 -11.33211,-11.33211z" fill="#ffffff" stroke="none" stroke-width="0" stroke-linecap="butt"/><path d="M237.77981,180.15471c0,-2.64993 2.1482,-4.79813 4.79813,-4.79813c2.64993,0 4.79813,2.1482 4.79813,4.79813c0,2.64993 -2.1482,4.79813 -4.79813,4.79813c-2.64993,0 -4.79813,-2.1482 -4.79813,-4.79813z" fill="#000000" stroke="none" stroke-width="0" stroke-linecap="butt"/><path d="M235.1453,161.97245v-24.875l-7.1875,-7.1875v-7.1148" fill="none" stroke="#000000" stroke-width="2.5" stroke-linecap="round"/><path d="M235.2703,150.59745l8.1875,-8.1875v-1.3125v-10.625" fill="none" stroke="#000000" stroke-width="2.5" stroke-linecap="round"/><path d="M243.70223,140.67223l6.125,-6.125" fill="none" stroke="#000000" stroke-width="2.5" stroke-linecap="round"/><path d="M234.78684,143.67016l-8.125,-8.125h-3v-7.375" fill="none" stroke="#000000" stroke-width="2.5" stroke-linecap="round"/><path d="M234.41184,155.79516l-7.375,-7.375h-6.125v-8.5l-4.0625,-4.0625v-7.4375" fill="none" stroke="#000000" stroke-width="2.5" stroke-linecap="round"/><path d="M225.53684,148.29516v-8.5" fill="none" stroke="#000000" stroke-width="2.5" stroke-linecap="round"/><path d="M223.47699,136.51344c0,-1.29999 1.05385,-2.35384 2.35385,-2.35384c1.29999,0 2.35384,1.05385 2.35384,2.35384c0,1.29999 -1.05385,2.35385 -2.35384,2.35385c-1.29999,0 -2.35385,-1.05385 -2.35385,-2.35385z" fill="#ffffff" stroke="#000000" stroke-width="2.5" stroke-linecap="butt"/><path d="M249.14752,130.82977c0,-1.93413 1.56793,-3.50207 3.50206,-3.50207c1.93413,0 3.50206,1.56793 3.50206,3.50207c0,1.93413 -1.56793,3.50207 -3.50206,3.50207c-1.93413,0 -3.50206,-1.56793 -3.50206,-3.50207z" fill="#ffffff" stroke="#000000" stroke-width="2.5" stroke-linecap="butt"/><path d="M241.13272,127.29899c0,-1.37926 1.11811,-2.49737 2.49737,-2.49737c1.37926,0 2.49737,1.11811 2.49737,2.49737c0,1.37925 -1.11811,2.49736 -2.49737,2.49736c-1.37926,0 -2.49737,-1.11811 -2.49737,-2.49736z" fill="#ffffff" stroke="#000000" stroke-width="2.5" stroke-linecap="butt"/><path d="M225.39357,119.83957c0,-1.57171 1.27412,-2.84582 2.84583,-2.84582c1.57171,0 2.84583,1.27411 2.84583,2.84582c0,1.57171 -1.27412,2.84583 -2.84583,2.84583c-1.57171,0 -2.84583,-1.27412 -2.84583,-2.84583z" fill="#ffffff" stroke="#000000" stroke-width="2.5" stroke-linecap="butt"/><path d="M221.38618,125.51927c0,-1.5378 1.24663,-2.78442 2.78442,-2.78442c1.53779,0 2.78443,1.24663 2.78443,2.78442c0,1.5378 -1.24663,2.78442 -2.78443,2.78442c-1.53779,0 -2.78442,-1.24663 -2.78442,-2.78442z" fill="#ffffff" stroke="#000000" stroke-width="2.5" stroke-linecap="butt"/><path d="M214.76528,125.31998c0,-1.45945 1.18311,-2.64256 2.64255,-2.64256c1.45944,0 2.64256,1.18311 2.64256,2.64256c0,1.45945 -1.18311,2.64256 -2.64256,2.64256c-1.45944,0 -2.64255,-1.18311 -2.64255,-2.64256z" fill="#ffffff" stroke="#000000" stroke-width="2.5" stroke-linecap="butt"/><path d="M247.67563,162.33416v-9.90018l6.95012,-6.95011v-6.67541" fill="none" stroke="#000000" stroke-width="2.5" stroke-linecap="round"/><path d="M250.97963,149.06588l-4.25937,-4.25937v-11.76464" fill="none" stroke="#000000" stroke-width="2.5" stroke-linecap="round"/><path d="M231.52282,196.81051l-6.37897,6.37897" fill="none" stroke="#000000" stroke-width="2.5" stroke-linecap="round"/><path d="M238.18949,196.81051l-6.37897,6.37897" fill="none" stroke="#000000" stroke-width="2.5" stroke-linecap="round"/><path d="M244.85615,196.81051l-6.37897,6.37897" fill="none" stroke="#000000" stroke-width="2.5" stroke-linecap="round"/><path d="M246.81051,196.81051l6.37897,6.37897" fill="none" stroke="#000000" stroke-width="2.5" stroke-linecap="round"/><path d="M240.14385,196.91258l6.37897,6.37897" fill="none" stroke="#000000" stroke-width="2.5" stroke-linecap="round"/><path d="M233.47718,196.81051l6.37897,6.37897" fill="none" stroke="#000000" stroke-width="2.5" stroke-linecap="round"/></g></g></svg>