<svg version="1.1" xmlns="http://www.w3.org/2000/svg" xmlns:xlink="http://www.w3.org/1999/xlink" width="44.4513" height="42.91744" viewBox="0,0,44.4513,42.91744"><g transform="translate(-221.56673,-154.83086)"><g data-paper-data="{&quot;isPaintingLayer&quot;:true}" fill-rule="nonzero" stroke-linecap="butt" stroke-linejoin="miter" stroke-miterlimit="10" stroke-dasharray="" stroke-dashoffset="0" style="mix-blend-mode: normal"><path d="M223.10059,176.28958c0,-11.85132 9.6074,-21.45872 21.45872,-21.45872c11.85132,0 21.45872,9.6074 21.45872,21.45872c0,11.85132 -9.6074,21.45872 -21.45872,21.45872c-11.85132,0 -21.45872,-9.6074 -21.45872,-21.45872z" fill="#003cff" stroke="none" stroke-width="0"/><path d="" fill="#003aff" stroke="none" stroke-width="0"/><path d="" fill="#003aff" stroke="none" stroke-width="0"/><path d="M222.56673,166.81706c0,-0.222 0.23359,-0.40198 0.52175,-0.40198h34.22307c0.28816,0 0.52175,0.17997 0.52175,0.40198v26.36588c0,0.222 -0.23359,0.40198 -0.52175,0.40198h-34.22307c-0.28816,0 -0.52175,-0.17997 -0.52175,-0.40198z" fill="none" stroke="#000000" stroke-width="2"/><path d="M243.71664,182.90671v-11.29858h11.29857v11.29858z" fill="#ffffff" stroke="none" stroke-width="0"/><path d="M247.8123,179.54194v-4.56905h4.56905v4.56905z" fill="#000000" stroke="none" stroke-width="0"/><path d="M230.00367,182.90671v-11.29858h11.29858v11.29858z" fill="#ffffff" stroke="none" stroke-width="0"/><path d="M234.09936,179.54194v-4.56905h4.56905v4.56905z" fill="#000000" stroke="none" stroke-width="0"/><text transform="translate(234.1,192.6) scale(0.15527,0.15527)" font-size="40" xml:space="preserve" fill="#0000" fill-rule="nonzero" stroke="#fff" stroke-width="1" stroke-linecap="butt" stroke-linejoin="miter" stroke-miterlimit="10" stroke-dasharray="" stroke-dashoffset="0" font-family="futura" font-weight="normal" text-anchor="start" style="mix-blend-mode: normal"><tspan x="0" dy="0">keto21.</tspan></text></g></g></svg>
